<svg xmlns="http://www.w3.org/2000/svg" width="35" height="90.031" viewBox="0 0 35 90.031">
  <metadata><?xpacket begin="﻿" id="W5M0MpCehiHzreSzNTczkc9d"?>
<x:xmpmeta xmlns:x="adobe:ns:meta/" x:xmptk="Adobe XMP Core 5.6-c142 79.160924, 2017/07/13-01:06:39        ">
   <rdf:RDF xmlns:rdf="http://www.w3.org/1999/02/22-rdf-syntax-ns#">
      <rdf:Description rdf:about=""/>
   </rdf:RDF>
</x:xmpmeta>
                                                                                                    
                                                                                                    
                                                                                                    
                                                                                                    
                                                                                                    
                                                                                                    
                                                                                                    
                                                                                                    
                                                                                                    
                                                                                                    
                                                                                                    
                                                                                                    
                                                                                                    
                                                                                                    
                                                                                                    
                                                                                                    
                                                                                                    
                                                                                                    
                                                                                                    
                                                                                                    
                           
<?xpacket end="w"?></metadata>
<defs>
    <style>
      .cls-1 {
        fill: #fff;
        fill-rule: evenodd;
      }
    </style>
  </defs>
  <path class="cls-1" d="M1342.89,20.166a7.592,7.592,0,0,1,6.28,1.41,8.038,8.038,0,0,1,2.5,3.493,7.3,7.3,0,0,1,.22,2.283,11.926,11.926,0,0,1-.14,2.39,7.874,7.874,0,0,1-5.37,5.082,12.3,12.3,0,0,1-3.19.1,7.526,7.526,0,0,1-5.97-5.683,17.737,17.737,0,0,1,.03-3.785A7.574,7.574,0,0,1,1342.89,20.166Zm-12.81,18.939a8.555,8.555,0,0,1,5.62-2.469c4.79-.211,9.59-0.188,14.39-0.115,1.28,0.035,2.56.054,3.83,0.167a9.646,9.646,0,0,1,6.41,4.181,10.061,10.061,0,0,1,1.59,5.576c0.11,5.8.06,11.609,0.06,17.417-0.03,1.933.01,3.87-.11,5.8a2.829,2.829,0,0,1-1.49,2.459c-1.11.642-.4,0.613-1.48-0.094a4.884,4.884,0,0,1-1.18-1.314q-0.045-11.186-.1-22.371c-0.48,0-3.15,0-3.64,0q0,17.486,0,34.977c-0.02,6.984.05,13.97-.1,20.951a19.652,19.652,0,0,1-.27,3.341,2.99,2.99,0,0,1-1.18,1.48,4.938,4.938,0,0,1-3.82.784c-1.17-.137-1.3-0.913-1.97-1.843a5.5,5.5,0,0,1-.42-2.238c-0.17-3.872-.1-7.749-0.12-11.623q-0.015-10.87,0-21.735c-0.49,0-2.92,0-3.4,0-0.02,9.184.01,18.361-.03,27.547-0.01,2.063-.02,4.123-0.1,6.183,0.13,2.075-.79,3.737-2.75,3.79a4.314,4.314,0,0,1-4.3-2.117,5.087,5.087,0,0,1-.35-2.419c-0.14-10.423-.1-20.849-0.12-31.272v-25.8c-0.48,0-2.8,0-3.28,0-0.02,6.79.04,13.58-.05,20.37a4.379,4.379,0,0,1-.52,2.548c-1.19,1.72-2.23,1.75-3.49.081a2.373,2.373,0,0,1-.53-1.685c-0.17-4.177-.16-8.358-0.17-12.541,0.03-4.244.01-8.5,0.23-12.735A8.9,8.9,0,0,1,1330.08,39.105Z" transform="translate(-1327 -19.969)"/>
</svg>
