<svg xmlns="http://www.w3.org/2000/svg" width="10.125" height="25.56" viewBox="0 0 10.125 25.56">
  <metadata><?xpacket begin="﻿" id="W5M0MpCehiHzreSzNTczkc9d"?>
<x:xmpmeta xmlns:x="adobe:ns:meta/" x:xmptk="Adobe XMP Core 5.6-c142 79.160924, 2017/07/13-01:06:39        ">
   <rdf:RDF xmlns:rdf="http://www.w3.org/1999/02/22-rdf-syntax-ns#">
      <rdf:Description rdf:about=""/>
   </rdf:RDF>
</x:xmpmeta>
                                                                                                    
                                                                                                    
                                                                                                    
                                                                                                    
                                                                                                    
                                                                                                    
                                                                                                    
                                                                                                    
                                                                                                    
                                                                                                    
                                                                                                    
                                                                                                    
                                                                                                    
                                                                                                    
                                                                                                    
                                                                                                    
                                                                                                    
                                                                                                    
                                                                                                    
                                                                                                    
                           
<?xpacket end="w"?></metadata>
<defs>
    <style>
      .cls-1 {
        fill: #fff;
        fill-rule: evenodd;
      }
    </style>
  </defs>
  <path id="Shape_149_copy" data-name="Shape 149 copy" class="cls-1" d="M229.027,1901.26a2.218,2.218,0,0,1,1.814.4,2.3,2.3,0,0,1,.72,1,1.965,1.965,0,0,1,.064.64,3.334,3.334,0,0,1-.041.68,2.254,2.254,0,0,1-1.55,1.45,4.044,4.044,0,0,1-.92.03,2.17,2.17,0,0,1-1.722-1.62,4.846,4.846,0,0,1,.009-1.07A2.173,2.173,0,0,1,229.027,1901.26Zm-3.7,5.38a2.53,2.53,0,0,1,1.623-.7c1.384-.06,2.77-0.05,4.156-0.03,0.367,0.01.737,0.01,1.1,0.05a2.763,2.763,0,0,1,1.849,1.18,2.827,2.827,0,0,1,.462,1.59c0.031,1.65.016,3.29,0.017,4.94-0.009.55,0,1.1-.034,1.65a0.8,0.8,0,0,1-.427.7c-0.323.18-.117,0.17-0.428-0.03a1.23,1.23,0,0,1-.34-0.37q-0.015-3.18-.029-6.35H232.23q0,4.965,0,9.93c-0.007,1.99.014,3.97-.028,5.95a5.455,5.455,0,0,1-.08.95,0.841,0.841,0,0,1-.339.42,1.429,1.429,0,0,1-1.1.22,0.772,0.772,0,0,1-.568-0.52,1.539,1.539,0,0,1-.122-0.63c-0.047-1.1-.027-2.21-0.033-3.31q0-3.075,0-6.17h-0.982c0,2.61,0,5.22-.007,7.82,0,0.59-.007,1.18-0.028,1.76a0.883,0.883,0,0,1-.8,1.08,1.257,1.257,0,0,1-1.239-.6,1.448,1.448,0,0,1-.1-0.69c-0.04-2.96-.029-5.92-0.033-8.88v-7.33h-0.948c-0.006,1.93.012,3.85-.014,5.78a1.253,1.253,0,0,1-.149.73c-0.345.48-.646,0.49-1.01,0.02a0.672,0.672,0,0,1-.151-0.48c-0.049-1.19-.047-2.37-0.049-3.56,0.007-1.21,0-2.41.066-3.62A2.526,2.526,0,0,1,225.329,1906.64Z" transform="translate(-224.438 -1901.22)"/>
</svg>
