<?xml version="1.0" encoding="utf-8"?>
<svg xmlns="http://www.w3.org/2000/svg" viewBox="0 0 50 50" width="500" height="500">
  <path d="M25 0C21.691 0 19 2.691 19 6C19 9.309 21.691 12 25 12C28.309 12 31 9.309 31 6C31 2.691 28.309 0 25 0 z M 19.984375 13.015625C17.984375 13.015625 15 15.015625 15 18.015625C15 19.194625 20.123047 32.693359 20.123047 32.693359C20.421047 33.501359 21.187 34.001953 22 34.001953C22.23 34.001953 22.463406 33.962906 22.691406 33.878906C23.728406 33.495906 24.258953 32.345594 23.876953 31.308594L20.050781 20.710938C20.043781 20.696938 20.038203 20.682969 20.033203 20.667969L20.023438 20.636719C20.023438 20.632719 20.024391 20.630953 20.025391 20.626953C20.014391 20.583953 20 20.544 20 20.5C20 20.224 20.224 20 20.5 20C20.719 20 20.90075 20.143844 20.96875 20.339844L20.970703 20.339844L24.814453 30.962891C24.942453 31.309891 24.991281 31.664672 24.988281 32.013672L25 32L25.015625 47.607422C25.019625 47.613422 25.02725 47.617047 25.03125 47.623047C25.16725 49.008047 26.233234 50 27.615234 50C29.179234 50 30 48.881406 30 47.316406L30 32.494141L29.984375 32.542969L29.984375 20.5C29.984375 20.229 30.214375 20 30.484375 20C30.756375 20 31 20.229 31 20.5L31 33.015625C31 34.118625 31.883375 35 32.984375 35C34.088375 35 34.984375 34.118625 34.984375 33.015625L34.984375 19.015625C34.984375 16.015625 32.984375 13.015625 28.984375 13.015625C28.984375 13.015625 20.007375 12.999625 19.984375 13.015625 z M 19 32.548828L19 47.316406C19 48.881406 19.820766 50 21.384766 50C22.766766 50 23.83275 49.008047 23.96875 47.623047C23.97275 47.617047 23.980375 47.613422 23.984375 47.607422L23.998047 34.230469C23.723047 34.476469 23.403109 34.681406 23.037109 34.816406C22.703109 34.939406 22.354 35.001953 22 35.001953C20.75 35.001953 19.619453 34.213828 19.189453 33.048828C19.131453 32.894828 19.064 32.717828 19 32.548828 z" fill="#FFFFFF" />
</svg>